<svg version="1.1" id="Layer_1" xmlns="http://www.w3.org/2000/svg" xmlns:xlink="http://www.w3.org/1999/xlink" x="0px" y="0px"
	 width="100%" viewBox="0 0 512 512" enable-background="new 0 0 512 512" xml:space="preserve">
<path fill="#000000" opacity="1.000000" stroke="none" 
	d="
M288.000000,513.000000 
	C192.023300,513.000000 96.546600,513.000000 1.034948,513.000000 
	C1.034948,342.398285 1.034948,171.796539 1.034948,1.097402 
	C171.560043,1.097402 342.120178,1.097402 512.840149,1.097402 
	C512.840149,171.666550 512.840149,342.333252 512.840149,513.000000 
	C438.129852,513.000000 363.314911,513.000000 288.000000,513.000000 
M245.500000,249.000000 
	C299.913513,249.000000 354.327026,249.000000 408.838104,249.000000 
	C408.915527,247.790741 408.992767,247.146713 408.992859,246.502701 
	C408.999298,209.515594 409.041748,172.528305 408.882843,135.541885 
	C408.874329,133.556610 407.628906,131.120331 406.183136,129.664993 
	C377.768402,101.061394 349.275482,72.534889 320.641327,44.151230 
	C318.900818,42.425953 315.854767,41.134705 313.412628,41.128929 
	C245.436707,40.968182 177.460327,40.998463 109.484024,41.010361 
	C108.051422,41.010609 106.618858,41.165649 105.305115,41.241611 
	C105.305115,110.674591 105.305115,179.724991 105.305115,249.000000 
	C151.906586,249.000000 198.203293,249.000000 245.500000,249.000000 
M73.099228,408.213715 
	C75.001389,408.475861 76.903473,408.966797 78.805710,408.967377 
	C197.601318,409.003754 316.396912,409.000092 435.192535,409.000092 
	C436.981476,409.000092 438.770447,409.000122 440.770355,409.000122 
	C440.770355,360.853424 440.770355,313.134674 440.770355,265.220337 
	C318.171906,265.220337 195.803223,265.220337 73.011375,265.220337 
	C73.011375,312.711151 73.011375,359.982788 73.099228,408.213715 
M402.420532,472.999969 
	C404.523834,472.999969 406.627136,472.999969 408.707764,472.999969 
	C408.707764,456.710663 408.707764,440.979309 408.707764,425.280670 
	C307.368317,425.280670 206.321320,425.280670 105.294785,425.280670 
	C105.294785,441.294403 105.294785,457.025848 105.294785,472.999969 
	C204.204575,472.999969 302.819855,472.999969 402.420532,472.999969 
z"/>
<path fill="#A9DBF5" opacity="1.000000" stroke="none" 
	d="
M245.000000,249.000000 
	C198.203293,249.000000 151.906586,249.000000 105.305115,249.000000 
	C105.305115,179.724991 105.305115,110.674591 105.305115,41.241611 
	C106.618858,41.165649 108.051422,41.010609 109.484024,41.010361 
	C177.460327,40.998463 245.436707,40.968182 313.412628,41.128929 
	C315.854767,41.134705 318.900818,42.425953 320.641327,44.151230 
	C349.275482,72.534889 377.768402,101.061394 406.183136,129.664993 
	C407.628906,131.120331 408.874329,133.556610 408.882843,135.541885 
	C409.041748,172.528305 408.999298,209.515594 408.992859,246.502701 
	C408.992767,247.146713 408.915527,247.790741 408.838104,249.000000 
	C354.327026,249.000000 299.913513,249.000000 245.000000,249.000000 
M173.505981,120.998642 
	C169.176926,121.011452 164.836685,120.834763 160.521942,121.089821 
	C156.117859,121.350159 153.063065,124.770302 153.030624,128.937424 
	C152.998291,133.089279 156.048965,136.443726 160.407959,136.934311 
	C161.724808,137.082535 163.069199,136.999359 164.400970,136.999405 
	C226.175888,137.001648 287.950806,137.001663 349.725708,136.999100 
	C351.057434,136.999039 352.404144,137.087830 353.718109,136.926010 
	C358.040131,136.393738 361.189972,132.935181 360.935333,128.803513 
	C360.664185,124.403084 358.146301,121.789391 353.826691,121.093796 
	C352.201141,120.832031 350.503601,121.001060 348.838898,121.000984 
	C290.727173,120.998184 232.615463,120.998642 173.505981,120.998642 
M334.499817,169.001358 
	C340.660553,168.996216 346.825745,169.133118 352.980591,168.939957 
	C357.714325,168.791428 360.939240,165.392670 360.967316,161.041870 
	C360.995392,156.683701 357.779053,153.399246 353.074463,153.027771 
	C352.081177,152.949341 351.077332,152.999451 350.078339,152.999435 
	C287.970673,152.998566 225.863007,152.998398 163.755341,153.000809 
	C162.590118,153.000854 161.403351,152.895416 160.263489,153.074127 
	C155.930313,153.753571 153.387909,156.302017 153.061951,160.699646 
	C152.756058,164.826370 155.871155,168.370453 160.169647,168.912231 
	C161.810730,169.119064 163.495163,168.998779 165.159851,168.998871 
	C221.273209,169.001831 277.386566,169.001343 334.499817,169.001358 
M347.394104,201.001358 
	C349.558319,200.980103 351.763367,201.217270 353.878235,200.883423 
	C358.184967,200.203583 360.700195,197.542725 360.936188,193.132355 
	C361.157898,188.988022 358.001709,185.572739 353.662994,185.067444 
	C352.347137,184.914185 351.001770,185.000717 349.669922,185.000656 
	C287.891174,184.998383 226.112427,184.997986 164.333679,185.002655 
	C162.836212,185.002762 161.293320,184.840363 159.849823,185.135803 
	C155.572754,186.011276 153.047180,188.691895 153.084732,193.118637 
	C153.120316,197.313690 155.595062,199.921280 159.606934,200.810867 
	C161.360214,201.199646 163.253479,200.995590 165.083176,200.995789 
	C225.529770,201.002518 285.976349,201.001343 347.394104,201.001358 
M194.500000,233.001343 
	C246.783630,233.001221 299.067261,233.010208 351.350891,232.988449 
	C357.287567,232.985977 360.853668,230.003479 360.967316,225.174545 
	C361.081909,220.305634 357.489349,217.019424 351.709595,217.016861 
	C288.602905,216.988953 225.496231,216.989792 162.389542,217.015076 
	C156.539307,217.017426 152.985565,220.182617 153.030624,225.064072 
	C153.075546,229.929337 156.621399,232.957062 162.529510,232.986526 
	C172.852768,233.038025 183.176483,233.001175 194.500000,233.001343 
z"/>
<path fill="#FFC328" opacity="1.000000" stroke="none" 
	d="
M73.055298,407.734070 
	C73.011375,359.982788 73.011375,312.711151 73.011375,265.220337 
	C195.803223,265.220337 318.171906,265.220337 440.770355,265.220337 
	C440.770355,313.134674 440.770355,360.853424 440.770355,409.000122 
	C438.770447,409.000122 436.981476,409.000092 435.192535,409.000092 
	C316.396912,409.000092 197.601318,409.003754 78.805710,408.967377 
	C76.903473,408.966797 75.001389,408.475861 73.055298,407.734070 
M161.004211,326.501953 
	C161.004425,322.336121 160.969254,318.169922 161.011856,314.004517 
	C161.117096,303.712067 167.631149,297.114899 177.855072,297.018280 
	C185.186279,296.949005 192.519272,297.063019 199.850266,296.983368 
	C205.372192,296.923370 208.864960,293.839844 208.967346,289.162262 
	C209.073868,284.295624 205.476562,281.063629 199.684021,281.013397 
	C192.019501,280.946899 184.352280,280.895691 176.689194,281.020538 
	C159.183823,281.305664 145.263916,295.036652 145.048859,312.487183 
	C144.847656,328.814667 144.850647,345.148438 145.046951,361.476013 
	C145.256622,378.915771 159.169693,392.672913 176.662079,392.976990 
	C184.324890,393.110168 191.992355,393.053467 199.656845,392.986359 
	C205.463135,392.935486 209.059845,389.720123 208.968475,384.856628 
	C208.877472,380.013641 205.315125,377.048615 199.378601,377.007874 
	C192.213730,376.958710 185.047729,377.050995 177.883179,376.981720 
	C167.716843,376.883484 161.078979,370.210693 161.019089,359.994385 
	C160.955582,349.163635 161.004440,338.332214 161.004211,326.501953 
M249.015854,327.256561 
	C249.007675,319.928497 249.041702,312.600067 248.975021,305.272552 
	C248.936966,301.089508 246.765717,298.239105 242.770462,297.263641 
	C238.961884,296.333710 235.747467,297.805023 234.051544,301.375244 
	C233.239395,303.084930 233.070465,305.214783 233.040497,307.160950 
	C232.929001,314.404449 232.996017,321.650696 232.996017,329.006622 
	C224.586441,329.006622 216.928955,328.968048 209.272125,329.021973 
	C205.083221,329.051483 202.238510,331.225677 201.262695,335.219543 
	C200.331970,339.028900 201.810455,342.241150 205.376617,343.939728 
	C207.085983,344.753876 209.215744,344.928772 211.161850,344.958984 
	C218.405212,345.071533 225.651398,345.003937 233.025497,345.003937 
	C233.025497,353.580658 232.871719,361.408508 233.083496,369.226532 
	C233.209564,373.880463 236.861877,377.087769 241.200958,376.970703 
	C245.342560,376.858948 248.563019,373.747772 248.941025,369.314514 
	C249.110275,367.329559 249.000900,365.320038 249.002426,363.321686 
	C249.007050,357.243073 249.004089,351.164459 249.004089,344.991882 
	C257.430115,344.991882 265.091827,345.111664 272.747559,344.949188 
	C277.738464,344.843323 281.100739,341.292236 280.967224,336.770477 
	C280.839233,332.436768 277.573486,329.299286 272.797211,329.024170 
	C270.971039,328.919006 269.131989,329.056122 267.302551,328.985626 
	C261.235474,328.751923 255.170059,328.473999 249.015854,327.256561 
M309.486847,328.995941 
	C305.989746,328.995972 302.492432,328.974091 298.995544,329.000885 
	C292.677185,329.049255 289.052399,331.959564 289.029907,336.963806 
	C289.007324,341.988953 292.629730,344.962921 298.933319,344.995239 
	C306.196960,345.032471 313.460968,345.003906 320.996094,345.003906 
	C320.996094,352.726746 320.970215,359.862152 321.003845,366.997284 
	C321.033539,373.297211 323.982269,376.949982 328.966705,376.970673 
	C333.954956,376.991333 336.962402,373.322723 336.995087,367.054993 
	C337.032959,359.792358 337.003906,352.529327 337.003906,345.003937 
	C344.736053,345.003937 351.872620,345.030670 359.008942,344.995911 
	C365.303986,344.965240 368.955505,342.004578 368.967194,337.012726 
	C368.978912,332.004944 365.339722,329.034210 359.043518,329.004120 
	C351.781830,328.969421 344.519836,328.996063 337.003906,328.996063 
	C337.003906,321.254578 337.031403,314.116882 336.995667,306.979553 
	C336.964142,300.678345 334.007843,297.036377 329.010345,297.026520 
	C324.001404,297.016693 321.034821,300.650818 321.004272,306.948792 
	C320.969055,314.211151 320.996063,321.473785 320.996063,328.995941 
	C317.090729,328.995941 313.784210,328.995941 309.486847,328.995941 
z"/>
<path fill="#A9DBF5" opacity="1.000000" stroke="none" 
	d="
M401.927856,472.999969 
	C302.819855,472.999969 204.204575,472.999969 105.294785,472.999969 
	C105.294785,457.025848 105.294785,441.294403 105.294785,425.280670 
	C206.321320,425.280670 307.368317,425.280670 408.707764,425.280670 
	C408.707764,440.979309 408.707764,456.710663 408.707764,472.999969 
	C406.627136,472.999969 404.523834,472.999969 401.927856,472.999969 
z"/>
<path fill="#010101" opacity="1.000000" stroke="none" 
	d="
M174.004868,120.998642 
	C232.615463,120.998642 290.727173,120.998184 348.838898,121.000984 
	C350.503601,121.001060 352.201141,120.832031 353.826691,121.093796 
	C358.146301,121.789391 360.664185,124.403084 360.935333,128.803513 
	C361.189972,132.935181 358.040131,136.393738 353.718109,136.926010 
	C352.404144,137.087830 351.057434,136.999039 349.725708,136.999100 
	C287.950806,137.001663 226.175888,137.001648 164.400970,136.999405 
	C163.069199,136.999359 161.724808,137.082535 160.407959,136.934311 
	C156.048965,136.443726 152.998291,133.089279 153.030624,128.937424 
	C153.063065,124.770302 156.117859,121.350159 160.521942,121.089821 
	C164.836685,120.834763 169.176926,121.011452 174.004868,120.998642 
z"/>
<path fill="#010101" opacity="1.000000" stroke="none" 
	d="
M333.999878,169.001343 
	C277.386566,169.001343 221.273209,169.001831 165.159851,168.998871 
	C163.495163,168.998779 161.810730,169.119064 160.169647,168.912231 
	C155.871155,168.370453 152.756058,164.826370 153.061951,160.699646 
	C153.387909,156.302017 155.930313,153.753571 160.263489,153.074127 
	C161.403351,152.895416 162.590118,153.000854 163.755341,153.000809 
	C225.863007,152.998398 287.970673,152.998566 350.078339,152.999435 
	C351.077332,152.999451 352.081177,152.949341 353.074463,153.027771 
	C357.779053,153.399246 360.995392,156.683701 360.967316,161.041870 
	C360.939240,165.392670 357.714325,168.791428 352.980591,168.939957 
	C346.825745,169.133118 340.660553,168.996216 333.999878,169.001343 
z"/>
<path fill="#010101" opacity="1.000000" stroke="none" 
	d="
M346.908508,201.001343 
	C285.976349,201.001343 225.529770,201.002518 165.083176,200.995789 
	C163.253479,200.995590 161.360214,201.199646 159.606934,200.810867 
	C155.595062,199.921280 153.120316,197.313690 153.084732,193.118637 
	C153.047180,188.691895 155.572754,186.011276 159.849823,185.135803 
	C161.293320,184.840363 162.836212,185.002762 164.333679,185.002655 
	C226.112427,184.997986 287.891174,184.998383 349.669922,185.000656 
	C351.001770,185.000717 352.347137,184.914185 353.662994,185.067444 
	C358.001709,185.572739 361.157898,188.988022 360.936188,193.132355 
	C360.700195,197.542725 358.184967,200.203583 353.878235,200.883423 
	C351.763367,201.217270 349.558319,200.980103 346.908508,201.001343 
z"/>
<path fill="#010101" opacity="1.000000" stroke="none" 
	d="
M194.000000,233.001343 
	C183.176483,233.001175 172.852768,233.038025 162.529510,232.986526 
	C156.621399,232.957062 153.075546,229.929337 153.030624,225.064072 
	C152.985565,220.182617 156.539307,217.017426 162.389542,217.015076 
	C225.496231,216.989792 288.602905,216.988953 351.709595,217.016861 
	C357.489349,217.019424 361.081909,220.305634 360.967316,225.174545 
	C360.853668,230.003479 357.287567,232.985977 351.350891,232.988449 
	C299.067261,233.010208 246.783630,233.001221 194.000000,233.001343 
z"/>
<path fill="#020200" opacity="1.000000" stroke="none" 
	d="
M161.004211,327.001526 
	C161.004440,338.332214 160.955582,349.163635 161.019089,359.994385 
	C161.078979,370.210693 167.716843,376.883484 177.883179,376.981720 
	C185.047729,377.050995 192.213730,376.958710 199.378601,377.007874 
	C205.315125,377.048615 208.877472,380.013641 208.968475,384.856628 
	C209.059845,389.720123 205.463135,392.935486 199.656845,392.986359 
	C191.992355,393.053467 184.324890,393.110168 176.662079,392.976990 
	C159.169693,392.672913 145.256622,378.915771 145.046951,361.476013 
	C144.850647,345.148438 144.847656,328.814667 145.048859,312.487183 
	C145.263916,295.036652 159.183823,281.305664 176.689194,281.020538 
	C184.352280,280.895691 192.019501,280.946899 199.684021,281.013397 
	C205.476562,281.063629 209.073868,284.295624 208.967346,289.162262 
	C208.864960,293.839844 205.372192,296.923370 199.850266,296.983368 
	C192.519272,297.063019 185.186279,296.949005 177.855072,297.018280 
	C167.631149,297.114899 161.117096,303.712067 161.011856,314.004517 
	C160.969254,318.169922 161.004425,322.336121 161.004211,327.001526 
z"/>
<path fill="#020200" opacity="1.000000" stroke="none" 
	d="
M249.059937,327.734802 
	C255.170059,328.473999 261.235474,328.751923 267.302551,328.985626 
	C269.131989,329.056122 270.971039,328.919006 272.797211,329.024170 
	C277.573486,329.299286 280.839233,332.436768 280.967224,336.770477 
	C281.100739,341.292236 277.738464,344.843323 272.747559,344.949188 
	C265.091827,345.111664 257.430115,344.991882 249.004089,344.991882 
	C249.004089,351.164459 249.007050,357.243073 249.002426,363.321686 
	C249.000900,365.320038 249.110275,367.329559 248.941025,369.314514 
	C248.563019,373.747772 245.342560,376.858948 241.200958,376.970703 
	C236.861877,377.087769 233.209564,373.880463 233.083496,369.226532 
	C232.871719,361.408508 233.025497,353.580658 233.025497,345.003937 
	C225.651398,345.003937 218.405212,345.071533 211.161850,344.958984 
	C209.215744,344.928772 207.085983,344.753876 205.376617,343.939728 
	C201.810455,342.241150 200.331970,339.028900 201.262695,335.219543 
	C202.238510,331.225677 205.083221,329.051483 209.272125,329.021973 
	C216.928955,328.968048 224.586441,329.006622 232.996017,329.006622 
	C232.996017,321.650696 232.929001,314.404449 233.040497,307.160950 
	C233.070465,305.214783 233.239395,303.084930 234.051544,301.375244 
	C235.747467,297.805023 238.961884,296.333710 242.770462,297.263641 
	C246.765717,298.239105 248.936966,301.089508 248.975021,305.272552 
	C249.041702,312.600067 249.007675,319.928497 249.059937,327.734802 
z"/>
<path fill="#020200" opacity="1.000000" stroke="none" 
	d="
M309.982300,328.995941 
	C313.784210,328.995941 317.090729,328.995941 320.996063,328.995941 
	C320.996063,321.473785 320.969055,314.211151 321.004272,306.948792 
	C321.034821,300.650818 324.001404,297.016693 329.010345,297.026520 
	C334.007843,297.036377 336.964142,300.678345 336.995667,306.979553 
	C337.031403,314.116882 337.003906,321.254578 337.003906,328.996063 
	C344.519836,328.996063 351.781830,328.969421 359.043518,329.004120 
	C365.339722,329.034210 368.978912,332.004944 368.967194,337.012726 
	C368.955505,342.004578 365.303986,344.965240 359.008942,344.995911 
	C351.872620,345.030670 344.736053,345.003937 337.003906,345.003937 
	C337.003906,352.529327 337.032959,359.792358 336.995087,367.054993 
	C336.962402,373.322723 333.954956,376.991333 328.966705,376.970673 
	C323.982269,376.949982 321.033539,373.297211 321.003845,366.997284 
	C320.970215,359.862152 320.996094,352.726746 320.996094,345.003906 
	C313.460968,345.003906 306.196960,345.032471 298.933319,344.995239 
	C292.629730,344.962921 289.007324,341.988953 289.029907,336.963806 
	C289.052399,331.959564 292.677185,329.049255 298.995544,329.000885 
	C302.492432,328.974091 305.989746,328.995972 309.982300,328.995941 
z"/>
</svg>