<svg version="1.1" id="Layer_1" xmlns="http://www.w3.org/2000/svg" xmlns:xlink="http://www.w3.org/1999/xlink" x="0px" y="0px"
	 width="100%" viewBox="0 0 512 512" enable-background="new 0 0 512 512" xml:space="preserve">
<path fill="#000000" opacity="1.000000" stroke="none" 
	d="
M206.000000,513.000000 
	C137.695877,513.000000 69.391739,513.000000 1.043805,513.000000 
	C1.043805,342.435486 1.043805,171.870956 1.043805,1.000000 
	C101.687897,1.000000 202.376099,1.000000 303.533569,1.416151 
	C308.966156,23.292170 305.929016,43.346107 293.673462,61.873611 
	C285.329285,74.488029 275.127808,85.325890 263.523285,94.991318 
	C253.189117,103.598679 243.382675,112.842896 232.991669,121.377899 
	C219.884903,132.143600 207.155975,143.205750 196.744446,156.731308 
	C185.454285,171.398315 180.291641,187.806290 183.106842,206.172485 
	C185.792206,223.691711 194.799942,238.260986 206.638565,251.005615 
	C218.205154,263.457397 232.120575,273.083374 246.534195,281.957764 
	C247.708450,282.680725 249.298981,282.727600 250.696075,283.088623 
	C250.184769,280.868835 249.071548,279.756409 248.060623,278.557678 
	C240.973511,270.154175 233.554184,262.001068 226.916046,253.255585 
	C216.489883,239.519547 211.249786,223.545776 210.154541,206.533920 
	C209.029221,189.054733 217.151428,174.673569 228.966522,162.760544 
	C248.419174,143.146652 268.917877,124.569374 288.344666,104.930977 
	C302.292358,90.831375 312.523987,74.311897 316.387878,54.325249 
	C319.845734,36.438976 318.533722,19.495518 308.424896,3.820338 
	C307.955109,3.091853 308.126984,1.949559 308.000000,1.000000 
	C376.301300,1.000000 444.602631,1.000000 512.951965,1.000000 
	C512.951965,171.554642 512.951965,342.109283 512.951965,513.000000 
	C442.312256,513.000000 371.623962,513.000000 300.382599,512.575684 
	C304.280029,511.440491 308.736298,510.763611 313.180084,510.013000 
	C330.952179,507.011108 348.875854,504.685974 366.448242,500.781769 
	C385.702972,496.503815 404.349457,490.148712 420.400757,477.920502 
	C425.952240,473.691284 430.540527,464.835388 428.891052,459.481781 
	C427.220673,460.826843 425.739441,461.986908 424.295319,463.191437 
	C422.778259,464.456757 421.412415,465.937897 419.781738,467.027222 
	C404.183044,477.447266 386.958557,484.188934 368.942474,488.965454 
	C348.134308,494.482269 327.040588,498.481689 305.527222,500.061035 
	C288.419159,501.316986 271.339661,503.270752 254.211029,503.866638 
	C226.346710,504.835907 198.495544,503.654327 170.734695,500.951538 
	C163.880081,500.284149 157.089264,498.984619 150.245880,498.171326 
	C145.364075,497.591187 140.443390,497.338226 134.427612,496.848755 
	C135.673630,498.766876 135.875320,499.466034 136.210434,499.537231 
	C149.655701,502.393829 163.056107,505.519073 176.588654,507.887726 
	C185.802673,509.500488 195.207489,510.014008 204.512207,511.140991 
	C205.074951,511.209137 205.507095,512.355408 206.000000,513.000000 
M225.565918,486.999969 
	C239.666916,486.667053 253.780289,486.594788 267.865387,485.926758 
	C281.535889,485.278412 295.260193,484.649780 308.811279,482.872009 
	C326.996735,480.486237 345.118774,477.411316 363.114471,473.855072 
	C375.822601,471.343689 388.313110,467.407623 399.083618,459.871185 
	C409.558350,452.541748 413.356079,442.815613 402.787323,435.601654 
	C399.020691,439.146027 395.633759,443.046021 391.567505,446.015961 
	C382.129486,452.909332 371.123718,456.591156 359.866577,458.868225 
	C343.976807,462.082306 327.972443,465.029053 311.876709,466.847534 
	C293.365234,468.938934 274.706512,470.628693 256.100952,470.743896 
	C235.621979,470.870728 215.045929,469.841034 194.669861,467.766479 
	C176.294617,465.895630 157.985382,462.598572 139.937180,458.615753 
	C130.667374,456.570099 121.865326,452.004822 113.173180,447.898132 
	C108.306107,445.598633 107.499954,440.705017 110.953445,436.776855 
	C113.859512,433.471405 117.197502,430.108215 121.047493,428.160736 
	C129.176071,424.049011 137.764740,420.846863 147.402084,416.744843 
	C143.878983,416.469635 141.317139,415.749390 138.967407,416.181763 
	C131.411057,417.572266 123.862381,419.122955 116.440437,421.098999 
	C103.600967,424.517426 90.751770,428.227661 79.820511,436.134705 
	C69.420906,443.657135 66.645416,453.523804 79.761734,460.951691 
	C87.933556,465.579468 96.891846,469.260986 105.935066,471.819366 
	C127.603119,477.949402 149.835037,481.329163 172.302078,483.034332 
	C189.730713,484.357117 207.159470,485.678162 225.565918,486.999969 
M337.658630,117.071800 
	C343.007782,113.897202 348.356903,110.722603 354.970520,106.797569 
	C352.464355,106.473213 351.268158,105.929352 350.424622,106.266846 
	C334.568817,112.610771 318.642365,118.761963 304.073578,127.929649 
	C290.251068,136.627731 277.309479,146.234482 267.774323,159.752029 
	C252.213303,181.812164 251.546021,207.292160 266.990479,229.666855 
	C272.256805,237.296295 276.782928,245.528534 280.830048,253.881317 
	C284.718323,261.906250 286.873779,270.677551 283.642700,279.484772 
	C281.483368,285.370758 278.198120,290.843658 274.794983,297.766205 
	C277.248169,297.257874 279.683868,297.487671 280.908356,296.379333 
	C288.458130,289.545715 296.717621,283.169617 302.874756,275.199524 
	C312.409515,262.857208 315.640137,249.045731 307.118317,234.192490 
	C300.884155,223.326492 295.151367,212.160110 289.533234,200.958054 
	C286.070953,194.054626 285.011139,186.419678 286.208771,178.862579 
	C288.458160,164.668427 295.701630,152.668243 305.839081,142.996353 
	C315.531921,133.748672 326.585907,125.927696 337.658630,117.071800 
M124.407227,297.896301 
	C117.370895,301.574371 117.806007,308.752747 124.093697,312.016876 
	C127.423721,313.745605 130.671265,315.718872 134.161484,317.038300 
	C148.189072,322.341217 162.733002,325.587097 177.646530,327.038574 
	C195.673584,328.793060 213.706833,331.508942 231.760269,331.705261 
	C253.908844,331.946045 276.092194,330.207214 298.239746,328.957245 
	C317.963531,327.844086 337.264526,323.932892 356.300568,318.782623 
	C361.023834,317.504761 365.548096,315.491211 371.180725,313.446716 
	C365.864319,310.241302 361.875458,307.692932 357.733978,305.423035 
	C356.419952,304.702789 354.623108,304.249481 353.176025,304.480591 
	C337.970581,306.908752 322.860809,310.090668 307.586273,311.889893 
	C290.568390,313.894409 273.414337,315.614655 256.306488,315.745117 
	C238.156372,315.883575 219.946320,314.498383 201.847458,312.846924 
	C189.309570,311.702881 176.853287,309.289368 164.492126,306.791840 
	C160.295715,305.943970 156.501678,303.104614 151.838181,300.842804 
	C159.034531,292.937988 167.450089,291.114014 175.635071,289.005554 
	C183.951462,286.863281 192.369385,285.115112 200.742859,283.194336 
	C200.810867,282.771576 200.878876,282.348785 200.946884,281.926025 
	C198.613495,281.647125 196.215378,280.875854 193.957703,281.172699 
	C182.901459,282.626495 171.834579,284.097992 160.863297,286.073181 
	C148.455048,288.307037 136.112823,290.984680 124.407227,297.896301 
M259.483459,365.000000 
	C242.268753,364.331665 225.005844,364.229034 207.858780,362.767181 
	C198.662323,361.983154 189.516068,359.352386 180.622040,356.650177 
	C172.549530,354.197571 172.081848,349.373596 178.695679,344.067780 
	C179.124374,343.723877 179.515991,343.333771 179.924850,342.965149 
	C177.249908,342.265869 174.884476,342.390015 172.672348,343.037720 
	C164.366379,345.469543 155.809952,347.377594 147.914383,350.792725 
	C138.744629,354.759033 138.572525,362.154968 146.980606,367.320740 
	C150.170013,369.280273 153.709717,370.759644 157.234253,372.068939 
	C178.557999,379.990143 200.973724,382.510559 223.383072,383.741486 
	C240.753525,384.695557 258.312347,384.127655 275.674408,382.780029 
	C292.324188,381.487671 308.902344,378.734131 325.364075,375.794281 
	C333.094971,374.413635 340.478394,371.087280 348.019287,368.642700 
	C348.005737,368.059662 347.992157,367.476654 347.978577,366.893616 
	C342.349670,363.605255 336.801697,360.162872 331.036713,357.133362 
	C329.536346,356.344910 327.268829,356.431152 325.506348,356.815582 
	C304.069458,361.490723 282.435699,364.519775 259.483459,365.000000 
M165.889572,421.341309 
	C169.513580,423.865112 172.833969,427.112579 176.815918,428.783264 
	C191.447006,434.922119 207.033310,437.625183 222.695862,438.789398 
	C235.998825,439.778229 249.433090,438.985962 262.809204,439.009827 
	C277.207092,439.035522 291.304413,436.770813 305.105530,432.906494 
	C312.202850,430.919250 319.043091,428.013702 325.999512,425.523132 
	C318.802917,420.018677 311.957336,415.830688 304.873749,412.093811 
	C303.045471,411.129333 300.421997,411.185883 298.245514,411.449127 
	C286.684631,412.847473 275.186127,414.902771 263.594055,415.855988 
	C254.779663,416.580780 245.847839,416.261414 236.986694,415.923431 
	C228.601013,415.603577 220.165176,415.129517 211.889587,413.837830 
	C204.721390,412.718994 197.195221,411.602325 192.061615,405.421448 
	C192.703720,403.637360 193.276398,402.046204 193.849060,400.455048 
	C193.547348,399.970032 193.245636,399.485016 192.943924,399.000000 
	C185.222961,401.880615 177.367615,404.452820 169.823929,407.740234 
	C163.884811,410.328400 162.742523,414.619904 165.889572,421.341309 
M435.106964,335.609131 
	C442.118530,325.517456 444.916748,314.731689 441.257751,302.561707 
	C433.425873,276.512665 402.658936,273.504120 384.114655,279.172577 
	C383.164337,279.463043 382.662079,281.219513 382.301178,281.764771 
	C387.727173,282.457397 392.715088,282.367462 397.222412,283.795044 
	C416.934906,290.038361 422.679810,308.298706 414.819183,327.388184 
	C409.287964,340.820526 399.330872,350.675842 387.830048,358.987732 
	C379.519653,364.993774 370.772339,370.395264 361.509674,376.537262 
	C363.571045,377.054871 365.266998,378.099518 366.473145,377.692505 
	C392.333740,368.966431 417.501007,359.024689 435.106964,335.609131 
z"/>
<path fill="#DE8E2F" opacity="1.000000" stroke="none" 
	d="
M307.600006,1.000000 
	C308.126984,1.949559 307.955109,3.091853 308.424896,3.820338 
	C318.533722,19.495518 319.845734,36.438976 316.387878,54.325249 
	C312.523987,74.311897 302.292358,90.831375 288.344666,104.930977 
	C268.917877,124.569374 248.419174,143.146652 228.966522,162.760544 
	C217.151428,174.673569 209.029221,189.054733 210.154541,206.533920 
	C211.249786,223.545776 216.489883,239.519547 226.916046,253.255585 
	C233.554184,262.001068 240.973511,270.154175 248.060623,278.557678 
	C249.071548,279.756409 250.184769,280.868835 250.696075,283.088623 
	C249.298981,282.727600 247.708450,282.680725 246.534195,281.957764 
	C232.120575,273.083374 218.205154,263.457397 206.638565,251.005615 
	C194.799942,238.260986 185.792206,223.691711 183.106842,206.172485 
	C180.291641,187.806290 185.454285,171.398315 196.744446,156.731308 
	C207.155975,143.205750 219.884903,132.143600 232.991669,121.377899 
	C243.382675,112.842896 253.189117,103.598679 263.523285,94.991318 
	C275.127808,85.325890 285.329285,74.488029 293.673462,61.873611 
	C305.929016,43.346107 308.966156,23.292170 304.001434,1.416151 
	C305.066681,1.000000 306.133331,1.000000 307.600006,1.000000 
z"/>
<path fill="#427595" opacity="1.000000" stroke="none" 
	d="
M206.468658,513.000000 
	C205.507095,512.355408 205.074951,511.209137 204.512207,511.140991 
	C195.207489,510.014008 185.802673,509.500488 176.588654,507.887726 
	C163.056107,505.519073 149.655701,502.393829 136.210434,499.537231 
	C135.875320,499.466034 135.673630,498.766876 134.427612,496.848755 
	C140.443390,497.338226 145.364075,497.591187 150.245880,498.171326 
	C157.089264,498.984619 163.880081,500.284149 170.734695,500.951538 
	C198.495544,503.654327 226.346710,504.835907 254.211029,503.866638 
	C271.339661,503.270752 288.419159,501.316986 305.527222,500.061035 
	C327.040588,498.481689 348.134308,494.482269 368.942474,488.965454 
	C386.958557,484.188934 404.183044,477.447266 419.781738,467.027222 
	C421.412415,465.937897 422.778259,464.456757 424.295319,463.191437 
	C425.739441,461.986908 427.220673,460.826843 428.891052,459.481781 
	C430.540527,464.835388 425.952240,473.691284 420.400757,477.920502 
	C404.349457,490.148712 385.702972,496.503815 366.448242,500.781769 
	C348.875854,504.685974 330.952179,507.011108 313.180084,510.013000 
	C308.736298,510.763611 304.280029,511.440491 299.914734,512.575684 
	C268.979095,513.000000 237.958206,513.000000 206.468658,513.000000 
z"/>
<path fill="#427595" opacity="1.000000" stroke="none" 
	d="
M225.077057,486.999969 
	C207.159470,485.678162 189.730713,484.357117 172.302078,483.034332 
	C149.835037,481.329163 127.603119,477.949402 105.935066,471.819366 
	C96.891846,469.260986 87.933556,465.579468 79.761734,460.951691 
	C66.645416,453.523804 69.420906,443.657135 79.820511,436.134705 
	C90.751770,428.227661 103.600967,424.517426 116.440437,421.098999 
	C123.862381,419.122955 131.411057,417.572266 138.967407,416.181763 
	C141.317139,415.749390 143.878983,416.469635 147.402084,416.744843 
	C137.764740,420.846863 129.176071,424.049011 121.047493,428.160736 
	C117.197502,430.108215 113.859512,433.471405 110.953445,436.776855 
	C107.499954,440.705017 108.306107,445.598633 113.173180,447.898132 
	C121.865326,452.004822 130.667374,456.570099 139.937180,458.615753 
	C157.985382,462.598572 176.294617,465.895630 194.669861,467.766479 
	C215.045929,469.841034 235.621979,470.870728 256.100952,470.743896 
	C274.706512,470.628693 293.365234,468.938934 311.876709,466.847534 
	C327.972443,465.029053 343.976807,462.082306 359.866577,458.868225 
	C371.123718,456.591156 382.129486,452.909332 391.567505,446.015961 
	C395.633759,443.046021 399.020691,439.146027 402.787323,435.601654 
	C413.356079,442.815613 409.558350,452.541748 399.083618,459.871185 
	C388.313110,467.407623 375.822601,471.343689 363.114471,473.855072 
	C345.118774,477.411316 326.996735,480.486237 308.811279,482.872009 
	C295.260193,484.649780 281.535889,485.278412 267.865387,485.926758 
	C253.780289,486.594788 239.666916,486.667053 225.077057,486.999969 
z"/>
<path fill="#DE8E2F" opacity="1.000000" stroke="none" 
	d="
M337.350098,117.275711 
	C326.585907,125.927696 315.531921,133.748672 305.839081,142.996353 
	C295.701630,152.668243 288.458160,164.668427 286.208771,178.862579 
	C285.011139,186.419678 286.070953,194.054626 289.533234,200.958054 
	C295.151367,212.160110 300.884155,223.326492 307.118317,234.192490 
	C315.640137,249.045731 312.409515,262.857208 302.874756,275.199524 
	C296.717621,283.169617 288.458130,289.545715 280.908356,296.379333 
	C279.683868,297.487671 277.248169,297.257874 274.794983,297.766205 
	C278.198120,290.843658 281.483368,285.370758 283.642700,279.484772 
	C286.873779,270.677551 284.718323,261.906250 280.830048,253.881317 
	C276.782928,245.528534 272.256805,237.296295 266.990479,229.666855 
	C251.546021,207.292160 252.213303,181.812164 267.774323,159.752029 
	C277.309479,146.234482 290.251068,136.627731 304.073578,127.929649 
	C318.642365,118.761963 334.568817,112.610771 350.424622,106.266846 
	C351.268158,105.929352 352.464355,106.473213 354.970520,106.797569 
	C348.356903,110.722603 343.007782,113.897202 337.350098,117.275711 
z"/>
<path fill="#427595" opacity="1.000000" stroke="none" 
	d="
M124.716454,297.686829 
	C136.112823,290.984680 148.455048,288.307037 160.863297,286.073181 
	C171.834579,284.097992 182.901459,282.626495 193.957703,281.172699 
	C196.215378,280.875854 198.613495,281.647125 200.946884,281.926025 
	C200.878876,282.348785 200.810867,282.771576 200.742859,283.194336 
	C192.369385,285.115112 183.951462,286.863281 175.635071,289.005554 
	C167.450089,291.114014 159.034531,292.937988 151.838181,300.842804 
	C156.501678,303.104614 160.295715,305.943970 164.492126,306.791840 
	C176.853287,309.289368 189.309570,311.702881 201.847458,312.846924 
	C219.946320,314.498383 238.156372,315.883575 256.306488,315.745117 
	C273.414337,315.614655 290.568390,313.894409 307.586273,311.889893 
	C322.860809,310.090668 337.970581,306.908752 353.176025,304.480591 
	C354.623108,304.249481 356.419952,304.702789 357.733978,305.423035 
	C361.875458,307.692932 365.864319,310.241302 371.180725,313.446716 
	C365.548096,315.491211 361.023834,317.504761 356.300568,318.782623 
	C337.264526,323.932892 317.963531,327.844086 298.239746,328.957245 
	C276.092194,330.207214 253.908844,331.946045 231.760269,331.705261 
	C213.706833,331.508942 195.673584,328.793060 177.646530,327.038574 
	C162.733002,325.587097 148.189072,322.341217 134.161484,317.038300 
	C130.671265,315.718872 127.423721,313.745605 124.093697,312.016876 
	C117.806007,308.752747 117.370895,301.574371 124.716454,297.686829 
z"/>
<path fill="#427595" opacity="1.000000" stroke="none" 
	d="
M259.979492,365.000031 
	C282.435699,364.519775 304.069458,361.490723 325.506348,356.815582 
	C327.268829,356.431152 329.536346,356.344910 331.036713,357.133362 
	C336.801697,360.162872 342.349670,363.605255 347.978577,366.893616 
	C347.992157,367.476654 348.005737,368.059662 348.019287,368.642700 
	C340.478394,371.087280 333.094971,374.413635 325.364075,375.794281 
	C308.902344,378.734131 292.324188,381.487671 275.674408,382.780029 
	C258.312347,384.127655 240.753525,384.695557 223.383072,383.741486 
	C200.973724,382.510559 178.557999,379.990143 157.234253,372.068939 
	C153.709717,370.759644 150.170013,369.280273 146.980606,367.320740 
	C138.572525,362.154968 138.744629,354.759033 147.914383,350.792725 
	C155.809952,347.377594 164.366379,345.469543 172.672348,343.037720 
	C174.884476,342.390015 177.249908,342.265869 179.924850,342.965149 
	C179.515991,343.333771 179.124374,343.723877 178.695679,344.067780 
	C172.081848,349.373596 172.549530,354.197571 180.622040,356.650177 
	C189.516068,359.352386 198.662323,361.983154 207.858780,362.767181 
	C225.005844,364.229034 242.268753,364.331665 259.979492,365.000031 
z"/>
<path fill="#427595" opacity="1.000000" stroke="none" 
	d="
M165.622192,421.064728 
	C162.742523,414.619904 163.884811,410.328400 169.823929,407.740234 
	C177.367615,404.452820 185.222961,401.880615 192.943924,399.000000 
	C193.245636,399.485016 193.547348,399.970032 193.849060,400.455048 
	C193.276398,402.046204 192.703720,403.637360 192.061615,405.421448 
	C197.195221,411.602325 204.721390,412.718994 211.889587,413.837830 
	C220.165176,415.129517 228.601013,415.603577 236.986694,415.923431 
	C245.847839,416.261414 254.779663,416.580780 263.594055,415.855988 
	C275.186127,414.902771 286.684631,412.847473 298.245514,411.449127 
	C300.421997,411.185883 303.045471,411.129333 304.873749,412.093811 
	C311.957336,415.830688 318.802917,420.018677 325.999512,425.523132 
	C319.043091,428.013702 312.202850,430.919250 305.105530,432.906494 
	C291.304413,436.770813 277.207092,439.035522 262.809204,439.009827 
	C249.433090,438.985962 235.998825,439.778229 222.695862,438.789398 
	C207.033310,437.625183 191.447006,434.922119 176.815918,428.783264 
	C172.833969,427.112579 169.513580,423.865112 165.622192,421.064728 
z"/>
<path fill="#427595" opacity="1.000000" stroke="none" 
	d="
M435.012207,335.961365 
	C417.501007,359.024689 392.333740,368.966431 366.473145,377.692505 
	C365.266998,378.099518 363.571045,377.054871 361.509674,376.537262 
	C370.772339,370.395264 379.519653,364.993774 387.830048,358.987732 
	C399.330872,350.675842 409.287964,340.820526 414.819183,327.388184 
	C422.679810,308.298706 416.934906,290.038361 397.222412,283.795044 
	C392.715088,282.367462 387.727173,282.457397 382.301178,281.764771 
	C382.662079,281.219513 383.164337,279.463043 384.114655,279.172577 
	C402.658936,273.504120 433.425873,276.512665 441.257751,302.561707 
	C444.916748,314.731689 442.118530,325.517456 435.012207,335.961365 
z"/>
</svg>