<svg version="1.1" id="Layer_1" xmlns="http://www.w3.org/2000/svg" xmlns:xlink="http://www.w3.org/1999/xlink" x="0px" y="0px"
	 width="100%" viewBox="0 0 512 512" enable-background="new 0 0 512 512" xml:space="preserve">
<path fill="#9BFCFF" opacity="1.000000" stroke="none" 
	d="
M439.000000,513.000000 
	C392.312439,513.000000 345.624878,513.000000 298.470154,512.531372 
	C298.003357,471.329926 298.014526,430.597198 297.970184,389.864471 
	C297.968079,387.933655 297.473083,386.003387 297.285461,383.740417 
	C299.440094,379.241241 301.543213,375.087372 303.589294,370.905609 
	C312.802338,352.075958 322.018097,333.247559 331.189758,314.397736 
	C333.794922,309.043488 332.916046,305.378021 328.612518,302.821136 
	C323.549225,299.812836 319.539185,300.981689 316.780975,306.421295 
	C310.776215,318.263336 304.837982,330.139160 298.616882,341.675537 
	C298.242126,339.535004 298.020874,337.720184 298.019379,335.905212 
	C297.997253,308.783936 298.024506,281.662598 297.960541,254.541489 
	C297.956055,252.634720 297.328400,250.729446 297.173279,248.561646 
	C305.659912,242.387466 308.880341,234.069580 308.876099,224.169937 
	C308.858734,183.614914 308.739807,143.059204 308.956726,102.505333 
	C309.013428,91.907387 306.279297,82.903069 297.981018,75.511833 
	C297.989594,50.362991 297.994812,25.681496 298.000000,1.000000 
	C321.687561,1.000000 345.375122,1.000000 369.620422,1.461925 
	C370.200256,29.923311 370.150238,57.923191 370.313904,85.921829 
	C370.341858,90.705833 370.667847,95.651405 371.911285,100.236183 
	C376.783020,118.199120 390.900635,128.962677 409.748718,129.088333 
	C436.414154,129.266129 463.081696,129.143982 489.748322,129.124298 
	C491.069855,129.123322 492.391205,128.877289 493.792603,129.223663 
	C493.894257,131.866623 493.934784,134.031281 493.934845,136.195953 
	C493.937958,238.118546 494.007660,340.041290 493.804901,441.963440 
	C493.788605,450.150787 492.907990,458.626190 490.655548,466.457642 
	C486.261719,481.734253 477.546387,494.562378 463.446564,502.526611 
	C455.773743,506.860535 447.178955,509.562134 439.000000,513.000000 
M341.017578,353.481964 
	C342.371857,355.804871 343.343506,358.510315 345.181946,360.349152 
	C347.254547,362.422241 350.113068,363.706665 352.619904,365.349091 
	C358.383911,369.125702 364.141937,372.911438 370.411530,377.027710 
	C361.558716,382.748444 353.416046,387.906219 345.387878,393.236511 
	C340.435577,396.524658 339.598755,401.354462 342.858673,406.138550 
	C346.428284,411.377167 351.183350,412.658478 356.080383,409.510406 
	C367.705078,402.037476 379.312836,394.537140 390.861572,386.947632 
	C400.282776,380.756317 400.306793,373.224213 390.915771,367.030182 
	C379.935516,359.787933 368.865265,352.682159 357.833618,345.517883 
	C349.744049,340.264313 343.460052,342.952057 341.017578,353.481964 
z"/>
<path fill="#D9FFFE" opacity="1.000000" stroke="none" 
	d="
M297.207642,384.072845 
	C297.473083,386.003387 297.968079,387.933655 297.970184,389.864471 
	C298.014526,430.597198 298.003357,471.329926 298.001526,512.531372 
	C251.645767,513.000000 205.291550,513.000000 158.198502,512.734497 
	C142.878540,510.003235 130.389557,503.333832 120.330406,492.669373 
	C107.260506,478.812958 102.039253,461.748993 102.021111,442.988647 
	C101.959923,379.714417 101.987228,316.440094 102.446487,253.099762 
	C161.362946,253.021362 219.814301,253.134552 278.263275,252.813934 
	C284.512817,252.779663 290.748444,250.214539 296.990540,248.823456 
	C297.328400,250.729446 297.956055,252.634720 297.960541,254.541489 
	C298.024506,281.662598 297.997253,308.783936 298.019379,335.905212 
	C298.020874,337.720184 298.242126,339.535004 298.569000,342.029358 
	C297.980377,344.533539 297.247314,346.389038 296.377808,348.178253 
	C285.849701,369.842224 275.277344,391.484772 264.774628,413.161072 
	C262.005402,418.876404 263.170135,423.149200 267.862610,425.381348 
	C272.646423,427.657013 276.773499,425.892365 279.491241,420.344391 
	C285.410583,408.260681 291.303772,396.164124 297.207642,384.072845 
M250.396133,408.951202 
	C256.886810,402.008881 256.358337,397.133209 248.562668,392.055969 
	C245.497711,390.059723 242.430954,388.066315 239.363235,386.074402 
	C234.848663,383.143005 230.332474,380.214081 225.310181,376.955292 
	C234.063629,371.271942 242.024307,366.151001 249.933426,360.951599 
	C255.270920,357.442749 256.276764,352.882538 252.965408,347.825287 
	C249.462723,342.475830 244.553070,341.250946 239.432129,344.559021 
	C227.701355,352.137115 215.968704,359.713196 204.299484,367.385406 
	C195.765457,372.996246 195.720505,380.841064 204.197250,386.425690 
	C215.858994,394.108643 227.660919,401.579926 239.275497,409.332581 
	C242.964294,411.794769 246.276016,411.978668 250.396133,408.951202 
z"/>
<path fill="#FFFFFF" opacity="1.000000" stroke="none" 
	d="
M101.980698,253.165833 
	C101.987228,316.440094 101.959923,379.714417 102.021111,442.988647 
	C102.039253,461.748993 107.260506,478.812958 120.330406,492.669373 
	C130.389557,503.333832 142.878540,510.003235 157.729843,512.734497 
	C105.694397,513.000000 53.388790,513.000000 1.041591,513.000000 
	C1.041591,342.451508 1.041591,171.902969 1.041591,1.000000 
	C53.020359,1.000000 105.041519,1.000000 157.261108,1.265358 
	C142.906052,3.992581 130.431335,10.640922 120.382118,21.276468 
	C107.329155,35.091011 102.200439,52.119648 101.517441,70.903854 
	C82.746101,70.978943 64.434288,71.223206 46.131554,70.919899 
	C32.634632,70.696236 20.234800,81.927444 20.122427,96.316826 
	C19.780603,140.086990 19.791153,183.863083 20.113850,227.633545 
	C20.223015,242.440704 32.705185,253.202469 46.068699,253.064484 
	C64.703697,252.872055 83.343147,253.111298 101.980698,253.165833 
z"/>
<path fill="#FFFFFF" opacity="1.000000" stroke="none" 
	d="
M439.468658,513.000000 
	C447.178955,509.562134 455.773743,506.860535 463.446564,502.526611 
	C477.546387,494.562378 486.261719,481.734253 490.655548,466.457642 
	C492.907990,458.626190 493.788605,450.150787 493.804901,441.963440 
	C494.007660,340.041290 493.937958,238.118546 493.934845,136.195953 
	C493.934784,134.031281 493.894257,131.866623 493.804871,128.773575 
	C495.196014,115.285858 492.211029,104.722176 482.701599,95.405556 
	C466.072418,79.113510 450.328583,61.915058 434.291443,45.022709 
	C427.316742,37.676064 420.779510,29.899902 413.597198,22.768394 
	C406.008423,15.233305 397.888123,8.233591 390.000000,1.000000 
	C430.974701,1.000000 471.949371,1.000000 512.946106,1.000000 
	C512.946106,171.666672 512.946106,342.333344 512.946106,513.000000 
	C488.573914,513.000000 464.255615,513.000000 439.468658,513.000000 
z"/>
<path fill="#D9FFFE" opacity="1.000000" stroke="none" 
	d="
M101.980858,70.838165 
	C102.200439,52.119648 107.329155,35.091011 120.382118,21.276468 
	C130.431335,10.640922 142.906052,3.992581 157.729767,1.265358 
	C204.354233,1.000000 250.708450,1.000000 297.531342,1.000000 
	C297.994812,25.681496 297.989594,50.362991 297.641327,75.414375 
	C291.271454,74.238724 285.252533,71.387054 279.216675,71.350807 
	C222.295471,71.009010 165.371368,71.150764 108.448097,71.134209 
	C106.292328,71.133583 104.136604,70.941193 101.980858,70.838165 
z"/>
<path fill="#02E7F0" opacity="1.000000" stroke="none" 
	d="
M389.531616,1.000000 
	C397.888123,8.233591 406.008423,15.233305 413.597198,22.768394 
	C420.779510,29.899902 427.316742,37.676064 434.291443,45.022709 
	C450.328583,61.915058 466.072418,79.113510 482.701599,95.405556 
	C492.211029,104.722176 495.196014,115.285858 493.724915,128.295273 
	C492.391205,128.877289 491.069855,129.123322 489.748322,129.124298 
	C463.081696,129.143982 436.414154,129.266129 409.748718,129.088333 
	C390.900635,128.962677 376.783020,118.199120 371.911285,100.236183 
	C370.667847,95.651405 370.341858,90.705833 370.313904,85.921829 
	C370.150238,57.923191 370.200256,29.923311 370.089111,1.461925 
	C376.354401,1.000000 382.708801,1.000000 389.531616,1.000000 
z"/>
<path fill="#4C5CE4" opacity="1.000000" stroke="none" 
	d="
M101.517441,70.903854 
	C104.136604,70.941193 106.292328,71.133583 108.448097,71.134209 
	C165.371368,71.150764 222.295471,71.009010 279.216675,71.350807 
	C285.252533,71.387054 291.271454,74.238724 297.637939,75.881721 
	C306.279297,82.903069 309.013428,91.907387 308.956726,102.505333 
	C308.739807,143.059204 308.858734,183.614914 308.876099,224.169937 
	C308.880341,234.069580 305.659912,242.387466 297.173279,248.561630 
	C290.748444,250.214539 284.512817,252.779663 278.263275,252.813934 
	C219.814301,253.134552 161.362946,253.021362 102.446487,253.099762 
	C83.343147,253.111298 64.703697,252.872055 46.068699,253.064484 
	C32.705185,253.202469 20.223015,242.440704 20.113850,227.633545 
	C19.791153,183.863083 19.780603,140.086990 20.122427,96.316826 
	C20.234800,81.927444 32.634632,70.696236 46.131554,70.919899 
	C64.434288,71.223206 82.746101,70.978943 101.517441,70.903854 
M151.253738,176.607605 
	C151.253738,173.848953 151.253738,171.090286 151.253738,168.374725 
	C159.341568,168.374725 166.603241,168.374725 174.305634,168.374725 
	C174.305634,178.317139 174.208572,187.949249 174.344452,197.578079 
	C174.418152,202.799957 177.291504,204.993225 183.413177,205.000916 
	C189.573792,205.008652 192.466309,202.859528 192.486526,197.627762 
	C192.576675,174.311188 192.578033,150.993652 192.410828,127.677917 
	C192.397308,125.792435 191.378845,123.172363 189.940460,122.182625 
	C186.132568,119.562485 181.341797,119.283119 177.700531,121.862038 
	C175.689682,123.286224 174.595551,127.065109 174.445999,129.855286 
	C174.022095,137.763840 174.297501,145.709885 174.297501,153.672089 
	C166.282288,153.672089 158.924393,153.672089 151.251617,153.672089 
	C151.251617,144.773041 151.308350,136.298325 151.230560,127.824837 
	C151.183105,122.656403 148.305298,120.309097 142.334518,120.305733 
	C136.316345,120.302338 133.199265,122.660248 133.183533,127.701706 
	C133.110825,151.018478 133.107040,174.335754 133.187256,197.652481 
	C133.204895,202.780685 136.192825,205.009811 142.325363,204.999908 
	C148.547211,204.989853 151.156418,202.887314 151.228180,197.565384 
	C151.318008,190.904572 151.252426,184.241684 151.253738,176.607605 
M70.849922,203.947891 
	C71.964951,204.267487 73.060806,204.737808 74.198090,204.882446 
	C82.193695,205.899277 85.271378,203.201324 85.285889,195.246124 
	C85.291664,192.081665 85.286949,188.917160 85.286957,185.752686 
	C85.286980,174.980988 85.286972,174.980988 96.005272,174.517029 
	C117.669556,173.579254 126.297882,164.243546 125.053062,143.087799 
	C124.329086,130.783936 116.671631,122.193939 104.095261,121.026932 
	C94.345009,120.122162 84.477562,120.279922 74.664253,120.334274 
	C69.253197,120.364250 67.234764,122.731735 67.223663,128.186356 
	C67.176880,151.170380 67.126984,174.155243 67.331612,197.137558 
	C67.350876,199.300690 69.144012,201.447998 70.849922,203.947891 
M262.874268,151.102768 
	C262.920105,149.938171 263.001343,148.773727 263.006470,147.608948 
	C263.080200,130.891525 255.538879,122.171295 238.829636,120.690292 
	C230.399261,119.943069 221.865448,120.226433 213.379959,120.281822 
	C206.836136,120.324532 205.005280,122.416824 205.001984,129.168457 
	C204.991074,151.482086 204.991135,173.795715 205.002060,196.109344 
	C205.005295,202.704285 207.362335,204.999023 214.036072,204.994827 
	C220.723740,204.990601 223.014145,202.740753 223.029770,196.103012 
	C223.046463,189.019089 223.033524,181.935074 223.033524,174.168396 
	C228.450592,174.168396 233.110611,174.402161 237.740112,174.125351 
	C252.708908,173.230316 260.116852,166.601791 262.874268,151.102768 
z"/>
<path fill="#03E7F0" opacity="1.000000" stroke="none" 
	d="
M297.285431,383.740417 
	C291.303772,396.164124 285.410583,408.260681 279.491241,420.344391 
	C276.773499,425.892365 272.646423,427.657013 267.862610,425.381348 
	C263.170135,423.149200 262.005402,418.876404 264.774628,413.161072 
	C275.277344,391.484772 285.849701,369.842224 296.377808,348.178253 
	C297.247314,346.389038 297.980377,344.533539 298.824707,342.354980 
	C304.837982,330.139160 310.776215,318.263336 316.780975,306.421295 
	C319.539185,300.981689 323.549225,299.812836 328.612518,302.821136 
	C332.916046,305.378021 333.794922,309.043488 331.189758,314.397736 
	C322.018097,333.247559 312.802338,352.075958 303.589294,370.905609 
	C301.543213,375.087372 299.440094,379.241241 297.285431,383.740417 
z"/>
<path fill="#02E7F0" opacity="1.000000" stroke="none" 
	d="
M341.035706,353.087891 
	C343.460052,342.952057 349.744049,340.264313 357.833618,345.517883 
	C368.865265,352.682159 379.935516,359.787933 390.915771,367.030182 
	C400.306793,373.224213 400.282776,380.756317 390.861572,386.947632 
	C379.312836,394.537140 367.705078,402.037476 356.080383,409.510406 
	C351.183350,412.658478 346.428284,411.377167 342.858673,406.138550 
	C339.598755,401.354462 340.435577,396.524658 345.387878,393.236511 
	C353.416046,387.906219 361.558716,382.748444 370.411530,377.027710 
	C364.141937,372.911438 358.383911,369.125702 352.619904,365.349091 
	C350.113068,363.706665 347.254547,362.422241 345.181946,360.349152 
	C343.343506,358.510315 342.371857,355.804871 341.035706,353.087891 
z"/>
<path fill="#03E7F0" opacity="1.000000" stroke="none" 
	d="
M250.097565,409.169281 
	C246.276016,411.978668 242.964294,411.794769 239.275497,409.332581 
	C227.660919,401.579926 215.858994,394.108643 204.197250,386.425690 
	C195.720505,380.841064 195.765457,372.996246 204.299484,367.385406 
	C215.968704,359.713196 227.701355,352.137115 239.432129,344.559021 
	C244.553070,341.250946 249.462723,342.475830 252.965408,347.825287 
	C256.276764,352.882538 255.270920,357.442749 249.933426,360.951599 
	C242.024307,366.151001 234.063629,371.271942 225.310181,376.955292 
	C230.332474,380.214081 234.848663,383.143005 239.363235,386.074402 
	C242.430954,388.066315 245.497711,390.059723 248.562668,392.055969 
	C256.358337,397.133209 256.886810,402.008881 250.097565,409.169281 
z"/>
<path fill="#FCFCFF" opacity="1.000000" stroke="none" 
	d="
M151.253830,177.093643 
	C151.252426,184.241684 151.318008,190.904572 151.228180,197.565384 
	C151.156418,202.887314 148.547211,204.989853 142.325363,204.999908 
	C136.192825,205.009811 133.204895,202.780685 133.187256,197.652481 
	C133.107040,174.335754 133.110825,151.018478 133.183533,127.701706 
	C133.199265,122.660248 136.316345,120.302338 142.334518,120.305733 
	C148.305298,120.309097 151.183105,122.656403 151.230560,127.824837 
	C151.308350,136.298325 151.251617,144.773041 151.251617,153.672089 
	C158.924393,153.672089 166.282288,153.672089 174.297501,153.672089 
	C174.297501,145.709885 174.022095,137.763840 174.445999,129.855286 
	C174.595551,127.065109 175.689682,123.286224 177.700531,121.862038 
	C181.341797,119.283119 186.132568,119.562485 189.940460,122.182625 
	C191.378845,123.172363 192.397308,125.792435 192.410828,127.677917 
	C192.578033,150.993652 192.576675,174.311188 192.486526,197.627762 
	C192.466309,202.859528 189.573792,205.008652 183.413177,205.000916 
	C177.291504,204.993225 174.418152,202.799957 174.344452,197.578079 
	C174.208572,187.949249 174.305634,178.317139 174.305634,168.374725 
	C166.603241,168.374725 159.341568,168.374725 151.253738,168.374725 
	C151.253738,171.090286 151.253738,173.848953 151.253830,177.093643 
z"/>
<path fill="#FCFCFF" opacity="1.000000" stroke="none" 
	d="
M70.481743,203.775269 
	C69.144012,201.447998 67.350876,199.300690 67.331612,197.137558 
	C67.126984,174.155243 67.176880,151.170380 67.223663,128.186356 
	C67.234764,122.731735 69.253197,120.364250 74.664253,120.334274 
	C84.477562,120.279922 94.345009,120.122162 104.095261,121.026932 
	C116.671631,122.193939 124.329086,130.783936 125.053062,143.087799 
	C126.297882,164.243546 117.669556,173.579254 96.005272,174.517029 
	C85.286972,174.980988 85.286980,174.980988 85.286957,185.752686 
	C85.286949,188.917160 85.291664,192.081665 85.285889,195.246124 
	C85.271378,203.201324 82.193695,205.899277 74.198090,204.882446 
	C73.060806,204.737808 71.964951,204.267487 70.481743,203.775269 
M85.261620,141.688507 
	C85.261589,144.181076 85.261536,146.673630 85.261528,149.166199 
	C85.261513,162.028732 85.923698,162.555313 99.090256,160.163254 
	C104.623932,159.157913 106.889297,156.134979 107.133369,149.430435 
	C107.419060,141.581970 105.413864,137.643555 99.755814,136.683472 
	C95.243767,135.917862 90.570419,136.102829 85.597954,135.846725 
	C85.460228,137.853302 85.361115,139.297333 85.261620,141.688507 
z"/>
<path fill="#FDFDFF" opacity="1.000000" stroke="none" 
	d="
M262.843628,151.548126 
	C260.116852,166.601791 252.708908,173.230316 237.740112,174.125351 
	C233.110611,174.402161 228.450592,174.168396 223.033524,174.168396 
	C223.033524,181.935074 223.046463,189.019089 223.029770,196.103012 
	C223.014145,202.740753 220.723740,204.990601 214.036072,204.994827 
	C207.362335,204.999023 205.005295,202.704285 205.002060,196.109344 
	C204.991135,173.795715 204.991074,151.482086 205.001984,129.168457 
	C205.005280,122.416824 206.836136,120.324532 213.379959,120.281822 
	C221.865448,120.226433 230.399261,119.943069 238.829636,120.690292 
	C255.538879,122.171295 263.080200,130.891525 263.006470,147.608948 
	C263.001343,148.773727 262.920105,149.938171 262.843628,151.548126 
M231.293518,160.665115 
	C236.119110,160.455582 241.346161,160.763321 243.619431,155.228363 
	C245.802521,149.913010 246.297882,143.982010 242.396774,139.580002 
	C237.183884,133.697800 229.843781,136.648392 223.281357,136.029938 
	C223.281357,144.587952 223.281357,152.344101 223.281357,160.665329 
	C225.817474,160.665329 228.102188,160.665329 231.293518,160.665115 
z"/>
<path fill="#5261E5" opacity="1.000000" stroke="none" 
	d="
M85.261810,141.214935 
	C85.361115,139.297333 85.460228,137.853302 85.597954,135.846725 
	C90.570419,136.102829 95.243767,135.917862 99.755814,136.683472 
	C105.413864,137.643555 107.419060,141.581970 107.133369,149.430435 
	C106.889297,156.134979 104.623932,159.157913 99.090256,160.163254 
	C85.923698,162.555313 85.261513,162.028732 85.261528,149.166199 
	C85.261536,146.673630 85.261589,144.181076 85.261810,141.214935 
z"/>
<path fill="#505FE5" opacity="1.000000" stroke="none" 
	d="
M230.840210,160.665222 
	C228.102188,160.665329 225.817474,160.665329 223.281357,160.665329 
	C223.281357,152.344101 223.281357,144.587952 223.281357,136.029938 
	C229.843781,136.648392 237.183884,133.697800 242.396774,139.580002 
	C246.297882,143.982010 245.802521,149.913010 243.619431,155.228363 
	C241.346161,160.763321 236.119110,160.455582 230.840210,160.665222 
z"/>
</svg>