<svg version="1.1" id="Layer_1" xmlns="http://www.w3.org/2000/svg" xmlns:xlink="http://www.w3.org/1999/xlink" x="0px" y="0px"
	 width="100%" viewBox="0 0 512 512" enable-background="new 0 0 512 512" xml:space="preserve">
<path fill="#78E0EA" opacity="1.000000" stroke="none" 
	d="
M1.000001,310.000000 
	C1.000000,274.979095 1.000000,239.958206 1.304662,204.795471 
	C2.727066,201.862778 3.981555,199.117950 4.939144,196.273193 
	C9.351592,183.164978 17.507195,172.624252 27.823269,163.779846 
	C39.875332,153.447067 54.039635,147.240387 69.926514,147.132248 
	C121.755447,146.779465 173.588318,147.025955 225.419556,146.956436 
	C230.163086,146.950089 234.918747,146.457062 239.645187,145.963974 
	C244.214417,145.487259 250.085770,140.081650 250.978836,135.839127 
	C252.248871,129.805847 250.340759,123.490196 245.309708,120.946617 
	C241.270828,118.904648 236.537399,117.227783 232.089035,117.170052 
	C205.594528,116.826210 179.093292,117.000023 152.594315,117.000023 
	C150.823944,117.000023 149.053574,117.000031 146.999847,117.000031 
	C146.999847,101.300941 147.059052,86.162605 146.982651,71.024956 
	C146.911026,56.832588 151.835037,44.060020 159.849869,32.929317 
	C170.674652,17.896305 184.783279,6.761213 203.605408,2.913729 
	C204.176788,2.796930 204.539825,1.660863 205.000000,1.000001 
	C222.020889,1.000000 239.041794,1.000000 256.531342,1.468657 
	C257.017883,86.916611 257.035767,171.895920 257.073090,256.960449 
	C257.092560,257.045685 256.989746,257.187103 256.530182,257.114197 
	C233.913239,257.027527 211.755844,256.995239 189.598480,257.004974 
	C163.907043,257.016266 147.046936,273.876678 146.997604,299.537262 
	C146.954361,322.024963 146.889114,344.512604 146.376160,367.000183 
	C122.434380,367.000092 98.949791,367.054321 75.465843,366.954590 
	C70.718132,366.934418 65.879860,366.809998 61.244099,365.907684 
	C47.817127,363.294312 35.896942,357.608856 25.641710,348.263367 
	C14.730838,338.320343 7.372927,326.362457 3.057487,312.360626 
	C2.776506,311.448975 1.704208,310.781219 1.000001,310.000000 
M207.976242,56.820259 
	C205.398209,66.012352 209.540878,73.982262 218.178879,76.448685 
	C226.147980,78.724121 234.433151,73.751518 236.576950,65.406517 
	C238.330719,58.579754 234.515884,51.063065 227.848373,48.207832 
	C220.373962,45.007053 212.931656,47.991970 207.976242,56.820259 
z"/>
<path fill="#FEDC00" opacity="1.000000" stroke="none" 
	d="
M513.000000,204.000000 
	C513.000000,238.687561 513.000000,273.375122 512.684448,308.205139 
	C511.332581,311.334045 510.272491,314.312469 509.264221,317.308350 
	C504.793823,330.591522 496.691925,341.402496 486.113098,350.322418 
	C473.842194,360.669159 459.514893,366.782288 443.458801,366.882446 
	C391.830170,367.204529 340.198242,366.974609 288.567688,367.043976 
	C283.826050,367.050354 279.069885,367.532471 274.348236,368.048065 
	C269.301666,368.599121 264.026703,373.466461 263.023285,378.145660 
	C261.741821,384.121124 264.136688,389.725555 268.532684,393.258820 
	C272.886047,396.757721 277.970947,396.857727 282.876709,396.898285 
	C309.023346,397.114288 335.172699,397.000000 361.321136,397.000000 
	C363.098267,397.000000 364.875397,397.000000 367.003845,397.000000 
	C367.003845,412.957947 367.330200,428.421295 366.847321,443.859375 
	C366.647034,450.261810 365.675110,456.976227 363.405670,462.919281 
	C353.917419,487.766449 336.730011,504.536346 310.405640,511.085754 
	C309.814911,511.232727 309.463226,512.340454 309.000000,513.000000 
	C291.979095,513.000000 274.958221,513.000000 257.468536,512.531372 
	C256.996429,427.104156 256.993073,342.145630 256.989746,257.187103 
	C256.989746,257.187103 257.092560,257.045685 257.531433,257.014435 
	C280.935486,256.988525 303.900696,257.015350 326.865875,256.993134 
	C349.458710,256.971283 366.945953,239.469299 366.999451,216.883041 
	C367.054626,193.588745 367.110718,170.294434 367.624329,147.000061 
	C390.215393,146.999985 412.348572,147.005325 434.481750,146.997391 
	C443.316559,146.994217 452.032166,146.923798 460.682678,149.857529 
	C472.867249,153.989807 483.309448,160.368622 492.314697,169.565842 
	C501.536621,178.984283 507.624573,189.971222 511.077911,202.580032 
	C511.243195,203.183563 512.338013,203.532501 513.000000,204.000000 
M280.198792,442.814392 
	C276.007721,449.599579 275.944366,455.395996 280.001190,460.894104 
	C283.559113,465.715912 289.877197,468.028534 295.462128,466.553131 
	C301.750763,464.891846 306.227417,459.812714 306.935089,453.536163 
	C307.608215,447.565948 304.295502,441.532440 298.796539,438.713257 
	C292.543213,435.507385 286.701355,436.646759 280.198792,442.814392 
z"/>
<path fill="#3CCCDD" opacity="1.000000" stroke="none" 
	d="
M367.166382,147.000137 
	C367.110718,170.294434 367.054626,193.588745 366.999451,216.883041 
	C366.945953,239.469299 349.458710,256.971283 326.865875,256.993134 
	C303.900696,257.015350 280.935486,256.988525 257.511963,256.929199 
	C257.035767,171.895920 257.017883,86.916611 257.000000,1.468657 
	C274.020905,1.000000 291.041779,1.000000 308.211365,1.315137 
	C308.704468,1.990596 308.996582,2.588001 309.400879,2.677258 
	C330.352295,7.302806 345.832672,19.461117 356.930389,37.462238 
	C363.154266,47.557777 366.930847,58.538967 366.987823,70.531532 
	C367.108917,96.020775 367.113831,121.510567 367.166382,147.000137 
z"/>
<path fill="#FEEF55" opacity="1.000000" stroke="none" 
	d="
M256.530182,257.114197 
	C256.993073,342.145630 256.996429,427.104156 256.999878,512.531372 
	C239.979111,513.000000 222.958206,513.000000 205.797760,512.685913 
	C202.535156,511.260071 199.432770,510.085510 196.285492,509.047089 
	C180.958694,503.990204 169.187057,494.018494 159.985565,481.251099 
	C152.040848,470.227600 147.101395,457.708130 147.024536,443.798126 
	C146.883072,418.199249 146.889053,392.599609 146.833588,367.000275 
	C146.889114,344.512604 146.954361,322.024963 146.997604,299.537262 
	C147.046936,273.876678 163.907043,257.016266 189.598480,257.004974 
	C211.755844,256.995239 233.913239,257.027527 256.530182,257.114197 
z"/>
<path fill="#000000" opacity="1.000000" stroke="none" 
	d="
M309.468658,513.000000 
	C309.463226,512.340454 309.814911,511.232727 310.405640,511.085754 
	C336.730011,504.536346 353.917419,487.766449 363.405670,462.919281 
	C365.675110,456.976227 366.647034,450.261810 366.847321,443.859375 
	C367.330200,428.421295 367.003845,412.957947 367.003845,397.000000 
	C364.875397,397.000000 363.098267,397.000000 361.321136,397.000000 
	C335.172699,397.000000 309.023346,397.114288 282.876709,396.898285 
	C277.970947,396.857727 272.886047,396.757721 268.532684,393.258820 
	C264.136688,389.725555 261.741821,384.121124 263.023285,378.145660 
	C264.026703,373.466461 269.301666,368.599121 274.348236,368.048065 
	C279.069885,367.532471 283.826050,367.050354 288.567688,367.043976 
	C340.198242,366.974609 391.830170,367.204529 443.458801,366.882446 
	C459.514893,366.782288 473.842194,360.669159 486.113098,350.322418 
	C496.691925,341.402496 504.793823,330.591522 509.264221,317.308350 
	C510.272491,314.312469 511.332581,311.334045 512.684448,308.673767 
	C513.000000,376.927032 513.000000,444.854034 513.000000,513.000000 
	C445.312592,513.000000 377.624969,513.000000 309.468658,513.000000 
z"/>
<path fill="#000000" opacity="1.000000" stroke="none" 
	d="
M204.531342,1.000001 
	C204.539825,1.660863 204.176788,2.796930 203.605408,2.913729 
	C184.783279,6.761213 170.674652,17.896305 159.849869,32.929317 
	C151.835037,44.060020 146.911026,56.832588 146.982651,71.024956 
	C147.059052,86.162605 146.999847,101.300941 146.999847,117.000031 
	C149.053574,117.000031 150.823944,117.000023 152.594315,117.000023 
	C179.093292,117.000023 205.594528,116.826210 232.089035,117.170052 
	C236.537399,117.227783 241.270828,118.904648 245.309708,120.946617 
	C250.340759,123.490196 252.248871,129.805847 250.978836,135.839127 
	C250.085770,140.081650 244.214417,145.487259 239.645187,145.963974 
	C234.918747,146.457062 230.163086,146.950089 225.419556,146.956436 
	C173.588318,147.025955 121.755447,146.779465 69.926514,147.132248 
	C54.039635,147.240387 39.875332,153.447067 27.823269,163.779846 
	C17.507195,172.624252 9.351592,183.164978 4.939144,196.273193 
	C3.981555,199.117950 2.727066,201.862778 1.304662,204.326813 
	C1.000000,136.406128 1.000000,68.812241 1.000000,1.000000 
	C68.687401,1.000000 136.375046,1.000000 204.531342,1.000001 
z"/>
<path fill="#000000" opacity="1.000000" stroke="none" 
	d="
M146.376160,367.000183 
	C146.889053,392.599609 146.883072,418.199249 147.024536,443.798126 
	C147.101395,457.708130 152.040848,470.227600 159.985565,481.251099 
	C169.187057,494.018494 180.958694,503.990204 196.285492,509.047089 
	C199.432770,510.085510 202.535156,511.260071 205.329102,512.685913 
	C137.073151,513.000000 69.146309,513.000000 1.000000,513.000000 
	C1.000000,445.645935 1.000000,378.291626 1.000001,310.468658 
	C1.704208,310.781219 2.776506,311.448975 3.057487,312.360626 
	C7.372927,326.362457 14.730838,338.320343 25.641710,348.263367 
	C35.896942,357.608856 47.817127,363.294312 61.244099,365.907684 
	C65.879860,366.809998 70.718132,366.934418 75.465843,366.954590 
	C98.949791,367.054321 122.434380,367.000092 146.376160,367.000183 
z"/>
<path fill="#000000" opacity="1.000000" stroke="none" 
	d="
M367.624298,147.000061 
	C367.113831,121.510567 367.108917,96.020775 366.987823,70.531532 
	C366.930847,58.538967 363.154266,47.557777 356.930389,37.462238 
	C345.832672,19.461117 330.352295,7.302806 309.400879,2.677258 
	C308.996582,2.588001 308.704468,1.990596 308.679993,1.315137 
	C376.926849,1.000000 444.853668,1.000000 513.000000,1.000000 
	C513.000000,68.354073 513.000000,135.708374 513.000000,203.531342 
	C512.338013,203.532501 511.243195,203.183563 511.077911,202.580032 
	C507.624573,189.971222 501.536621,178.984283 492.314697,169.565842 
	C483.309448,160.368622 472.867249,153.989807 460.682678,149.857529 
	C452.032166,146.923798 443.316559,146.994217 434.481750,146.997391 
	C412.348572,147.005325 390.215393,146.999985 367.624298,147.000061 
z"/>
<path fill="#5B5C70" opacity="1.000000" stroke="none" 
	d="
M208.101501,56.448917 
	C212.931656,47.991970 220.373962,45.007053 227.848373,48.207832 
	C234.515884,51.063065 238.330719,58.579754 236.576950,65.406517 
	C234.433151,73.751518 226.147980,78.724121 218.178879,76.448685 
	C209.540878,73.982262 205.398209,66.012352 208.101501,56.448917 
z"/>
<path fill="#494958" opacity="1.000000" stroke="none" 
	d="
M280.437439,442.531006 
	C286.701355,436.646759 292.543213,435.507385 298.796539,438.713257 
	C304.295502,441.532440 307.608215,447.565948 306.935089,453.536163 
	C306.227417,459.812714 301.750763,464.891846 295.462128,466.553131 
	C289.877197,468.028534 283.559113,465.715912 280.001190,460.894104 
	C275.944366,455.395996 276.007721,449.599579 280.437439,442.531006 
z"/>
</svg>